<?xml version="1.0" standalone="no"?>
<!DOCTYPE svg PUBLIC "-//W3C//DTD SVG 20010904//EN"
 "http://www.w3.org/TR/2001/REC-SVG-20010904/DTD/svg10.dtd">
<svg version="1.0" xmlns="http://www.w3.org/2000/svg"
 width="90.000000pt" height="90.000000pt" viewBox="0 0 90.000000 90.000000"
 preserveAspectRatio="xMidYMid meet">
<metadata>
Created by potrace 1.14, written by Peter Selinger 2001-2017
</metadata>
<g transform="translate(0.000000,90.000000) scale(0.100000,-0.100000)"
fill="#000000" stroke="none">
<path d="M0 450 l0 -450 450 0 450 0 0 288 -1 287 -37 -44 c-20 -25 -46 -56
-58 -69 l-21 -25 -22 31 -22 32 32 40 c30 37 36 40 81 40 l48 0 0 160 0 160
-450 0 -450 0 0 -450z m608 41 c23 -27 42 -53 42 -58 0 -4 -16 -25 -35 -45
l-35 -38 -90 0 -90 0 0 -30 c0 -33 -3 -35 -49 -19 l-31 11 0 79 0 79 -40 0
-39 0 -3 -65 -3 -64 -42 19 c-41 18 -43 21 -43 65 l0 45 -38 0 c-29 0 -45 7
-65 28 -15 15 -27 31 -27 35 0 4 123 7 273 7 l274 0 41 -49z m125 -4 l46 -54
-43 -42 c-39 -38 -47 -42 -85 -39 l-42 3 35 41 36 42 -40 45 c-22 25 -40 48
-40 51 0 3 20 6 44 6 40 0 47 -4 89 -53z m110 -127 c26 -32 47 -61 47 -64 0
-3 -19 -6 -43 -6 -39 0 -47 4 -76 41 l-33 40 23 25 c12 13 25 24 28 23 3 0 27
-26 54 -59z"/>
<path d="M400 440 l0 -30 79 0 c82 0 107 12 95 44 -5 13 -22 16 -90 16 l-84 0
0 -30z"/>
</g>
</svg>
